<svg xmlns="http://www.w3.org/2000/svg" width="1000" height="1000" xmlns:v="https://vecta.io/nano"><path d="M599.2 37.3l-363 363C276.4 467.2 328.6 526 390 573.7L858.6 105c-81-34.8-168.2-58-259.4-67.7z" fill="#ff8600"/><path d="M125.1 472.6c-6.4 0-12.6.7-18.6 1.9 7.6 23.4 36.8 40.8 71.6 40.8 8.6 0 16.9-1.1 24.6-3.1-18.3-24.1-46.2-39.6-77.6-39.6zm27.7 56.5c-6.3 1.1-12.3 2.8-18 5 11.5 21.8 43.2 34 77.5 28.1 8.5-1.5 16.5-3.9 23.8-7.2-22.2-20.6-52.4-31.2-83.3-25.9zm41 57.2a98.31 98.31 0 0 0-17.2 7.5c14.5 19.9 47.6 27.6 80.7 16.9 8.2-2.6 15.8-6.2 22.5-10.5-24.8-17.4-56.2-23.5-86-13.9zm45.3 52c-6 3.3-11.6 7.2-16.6 11.5 19.5 18.1 56.3 19.4 89.2 1.2 8.2-4.5 15.4-9.9 21.7-15.7-30.1-13.3-64.7-13.4-94.3 3zm66 44.7c-6.2 4.3-11.9 9.1-17 14.3 23.3 17.8 63.6 15.4 97.7-7.9 8.5-5.8 15.9-12.4 22.1-19.5-34.2-11.4-72-7.9-102.8 13.1zm84.7 40.4c-6.1 6.1-11.5 12.7-16.1 19.7 30 15.2 74.9 3.9 108.4-29.5 8.3-8.3 15.2-17.3 20.7-26.6-41-5.6-82.9 6.3-113 36.4zm491-250.8c6.4 0 12.6.7 18.6 1.9-7.6 23.4-36.8 40.8-71.6 40.8-8.6 0-16.9-1.1-24.6-3.1 18.3-24.1 46.3-39.6 77.6-39.6zm-27.7 56.5c6.3 1.1 12.3 2.8 18 5-11.5 21.8-43.2 34-77.5 28.1-8.5-1.5-16.5-3.9-23.8-7.2 22.2-20.6 52.4-31.2 83.3-25.9zm-40.9 57.2a98.31 98.31 0 0 1 17.2 7.5c-14.5 19.9-47.6 27.6-80.7 16.9-8.2-2.6-15.8-6.2-22.5-10.5 24.7-17.4 56.1-23.5 86-13.9zm-45.4 52c6 3.3 11.6 7.2 16.6 11.5-19.5 18.1-56.3 19.4-89.2 1.2-8.2-4.5-15.4-9.9-21.7-15.7 30.1-13.3 64.7-13.4 94.3 3zm-66 44.7c6.2 4.3 11.9 9.1 17 14.3-23.3 17.8-63.6 15.4-97.7-7.9-8.5-5.8-15.9-12.4-22.1-19.5 34.2-11.4 72-7.9 102.8 13.1zm-84.7 40.4c6.1 6.1 11.5 12.7 16.1 19.7-30 15.2-74.9 3.9-108.4-29.5-8.3-8.3-15.2-17.3-20.7-26.6 41-5.6 82.9 6.3 113 36.4zm242.5-618.5L389.9 573.7c26.8 20.8 55.3 39.6 85.3 55.9.2.1.3.2.5.3 8.9 4.9 18 9.5 27.2 13.9 9.2-4.4 18.2-9.1 27.1-13.9.2-.1.3-.2.5-.3 188-102.4 318-297.9 328.1-524.7 0 .1 0 .1 0 0zM599.1 37.3c-31.6-3.3-63.6-5.1-96.1-5.1-126.4 0-246.7 26-355.9 72.9 4.8 107.6 36.7 208.2 89 295.2l363-363zM104.7 893.2c0-7 2.8-12.4 8.3-16.3s12.7-5.8 21.6-5.8c9.4 0 18 1 25.8 2.9l-.6 24.2h-5.7l-6.3-18.1c-3.5-.7-7.1-1-10.7-1-5.8 0-10.4 1.1-13.7 3.4s-5 5.4-5 9.5c0 3.4 1.5 6.3 4.5 8.6s8.2 5 15.6 8.1c3.9 1.6 7.2 3.1 9.8 4.5s5.3 3.2 8.3 5.5c2.9 2.3 5.1 5 6.6 8.2s2.2 6.8 2.2 10.7c0 8.4-3.1 14.9-9.3 19.4-5.8 4.2-13.1 6.3-21.8 6.2-2.4 0-6.2-.2-11.7-.6-5.4-.4-11.3-1.6-17.6-3.4v-24.8h5.8l6.4 18.9c3.5 1.1 7.6 1.6 12.4 1.6 6.6 0 11.8-1.2 15.9-3.5 4-2.3 6-5.9 6-10.9 0-3.8-1.8-7.1-5.4-9.8-3.6-2.8-8.9-5.7-15.9-8.7-9.6-4.1-16.2-8.1-19.9-12-3.8-3.9-5.6-9.5-5.6-16.8zm94.5-14.4V873h38.7v5.8l-11.6 2.8v46.7c0 8.4 2.1 14.7 6.2 18.9 4.2 4.2 9.8 6.3 16.8 6.3s12.6-2.1 16.9-6.4 6.4-10.5 6.4-18.9v-46.7l-11.7-2.8V873h32.3v5.8l-11.6 2.8v46.6c0 5.5-.9 10.5-2.6 14.9s-4.1 8-7.2 11c-3.1 2.9-6.8 5.2-11.2 6.7-4.3 1.6-9.1 2.3-14.2 2.3-5.2 0-10-.8-14.4-2.3s-8.1-3.8-11.3-6.7c-3.2-3-5.6-6.6-7.4-11-1.8-4.3-2.6-9.3-2.6-14.9v-46.6l-11.5-2.8zm127.6 82.4v-5.8l11.7-2.8v-71.1l-11.7-2.8V873h38.7v5.8l-11.6 2.8v71.1l11.6 2.8v5.8h-38.7zm73.2-61.5V873h75v26.7h-5.9l-5.7-18.4-18.1-1v72.4l11.6 2.8v5.8h-38.7v-5.8l11.6-2.8v-72.4l-18.3 1-5.5 18.4h-6zm95.9 61.5v-5.8l11.8-2.8 30.6-80.3h9.1l28.7 80.4 11.6 2.6v5.8h-37.1v-5.8l9.3-2.1-6-17H523l-6.6 16.6 11.1 2.5v5.8h-31.6zm30-32.4h25.3l-12.4-34.4-12.9 34.4zm92.4 32.4v-5.8l11.6-2.8v-71.1l-11.6-2.8V873h36.2c20.5 0 30.8 7.1 30.8 21.4 0 4.6-1.4 8.7-4.1 12.1s-6.5 5.9-11.2 7.4v.3c6.9 1.3 12.2 3.8 15.9 7.7s5.6 8.7 5.6 14.5c0 7.6-2.8 13.6-8.4 18.1s-13.2 6.7-22.8 6.7h-42zm27.1-49.8h7.2c4.9 0 8.9-1.4 12-4.2 3.2-2.8 4.7-6.7 4.7-11.7s-1.6-8.8-4.7-11.2c-3.2-2.4-7.4-3.7-12.8-3.7h-6.4v30.8zm0 42.1h11c6.1 0 10.9-1.5 14.2-4.4 3.4-2.9 5-7.2 5-12.7 0-5.1-1.7-9.2-5.2-12.4-3.5-3.1-8.4-4.7-14.7-4.7h-10.3v34.2zm81.8 7.7v-5.8l11.6-2.8v-71.1l-11.6-2.8V873h38.7v5.8l-11.6 2.8v71.3h29.6l6.8-18.9h5.8l-1.3 27.2h-68zm103.1 0v-5.8l11.6-2.8v-71.1l-11.6-2.8V873H896v25.8h-5.9l-5.4-17.5-27.2-1v32.5l27.2-2.4v11.2l-27.2-2.3v34.5l29.6-1 6.4-18.9h5.9l-1 27.2h-68.1z" fill="#1b303f"/><path d="M402.1 422.1v-76.5h24.6l20.3 56.2c12.5 2.1 26.4 3.2 41.7 3.2 22.8 0 39-2.9 48.4-8.8s14.2-16 14.2-30.2c0-11.1-5.2-20.2-15.5-27.6-10.4-7.3-28.2-16-53.5-26-23.9-10-42.5-21.8-55.6-35.6-13.2-13.7-19.8-31.1-19.8-52.2 0-23.9 10.1-42.2 30.2-54.8 20.1-12.7 46.5-19 78.9-19 28.2 0 53.7 3.4 76.5 10.2v72.8H570l-17.7-50.3c-10.4-2.8-22.5-4.3-36.4-4.3-19.3 0-32.7 2.9-40.4 8.8S464 202.7 464 214.5c0 6.8 2.5 12.8 7.5 18.2s10.6 9.7 16.9 13.1c6.2 3.4 16.3 8.1 30.2 14.2 32.5 13.6 55.7 27.2 69.8 40.9s21.1 31.5 21.1 53.2c0 26-10.5 45.9-31.6 59.7-21.1 13.7-48.5 20.6-82.4 20.6-33.3 0-64.5-4.1-93.4-12.3z" fill="#fff"/></svg>